<svg xmlns="http://www.w3.org/2000/svg" viewBox="0 0 1600 600" width="1600" height="600" preserveAspectRatio="xMidYMid slice">
  <defs>
    <linearGradient id="sky" x1="0" y1="0" x2="0" y2="1">
      <stop offset="0" stop-color="#E9D7B4"></stop>
      <stop offset="0.5" stop-color="#C99052"></stop>
      <stop offset="1" stop-color="#7A4F22"></stop>
    </linearGradient>
    <linearGradient id="haze" x1="0" y1="0" x2="0" y2="1">
      <stop offset="0" stop-color="#FAF6EF" stop-opacity="0"></stop>
      <stop offset="1" stop-color="#14110F" stop-opacity="0.55"></stop>
    </linearGradient>
    <filter id="grain"><feTurbulence type="fractalNoise" baseFrequency="0.9" numOctaves="2"></feTurbulence><feColorMatrix values="0 0 0 0 0.08  0 0 0 0 0.07  0 0 0 0 0.06  0 0 0 0.06 0"></feColorMatrix></filter>
  </defs>
  <rect width="1600" height="600" fill="url(#sky)"></rect>
  
  <path d="M0,420 L120,360 L240,400 L380,330 L520,395 L660,350 L820,410 L980,360 L1140,400 L1300,355 L1460,395 L1600,370 L1600,600 L0,600 Z" fill="#7A4F22" opacity="0.55"></path>
  <path d="M0,470 L160,430 L320,460 L500,420 L680,455 L860,420 L1040,460 L1220,430 L1400,460 L1600,445 L1600,600 L0,600 Z" fill="#5A3A18" opacity="0.7"></path>
  
  <g fill="#221E1A" opacity="0.85">
    <rect x="1280" y="430" width="240" height="120"></rect>
    <rect x="1310" y="380" width="180" height="60"></rect>
    <ellipse cx="1400" cy="380" rx="80" ry="50"></ellipse>
    <rect x="1396" y="320" width="8" height="60"></rect>
  </g>
  
  <g fill="#0A0907" opacity="0.7">
    <rect x="1480" y="200" width="6" height="280"></rect>
    <ellipse cx="1500" cy="220" rx="120" ry="110"></ellipse>
  </g>
  <rect width="1600" height="600" fill="url(#haze)"></rect>
  <rect width="1600" height="600" filter="url(#grain)" opacity="0.4"></rect>
</svg>