<svg xmlns="http://www.w3.org/2000/svg" viewBox="0 0 600 800" width="600" height="800">
  <defs>
    <linearGradient id="page" x1="0" y1="0" x2="1" y2="1">
      <stop offset="0" stop-color="#F4E4CB"></stop><stop offset="1" stop-color="#DDB07A"></stop>
    </linearGradient>
  </defs>
  <rect width="600" height="800" fill="url(#page)"></rect>
  
  <g stroke="#5A3A18" stroke-width="1" fill="none">
    <rect x="60" y="60" width="180" height="180"></rect>
    <rect x="68" y="68" width="164" height="164"></rect>
    <text x="100" y="200" font-family="Newsreader, serif" font-size="180" fill="#5A3A18" font-weight="500">A</text>
    
    <path d="M60,60 C30,40 30,90 60,80 M240,60 C270,40 270,90 240,80 M60,240 C30,260 30,210 60,220 M240,240 C270,260 270,210 240,220" stroke-width="1.25"></path>
  </g>
  
  <g stroke="#36302A" stroke-width="0.6" opacity="0.6">
    <line x1="280" y1="80" x2="540" y2="80"></line><line x1="280" y1="100" x2="540" y2="100"></line>
    <line x1="280" y1="120" x2="540" y2="120"></line><line x1="280" y1="140" x2="510" y2="140"></line>
    <line x1="280" y1="160" x2="540" y2="160"></line><line x1="280" y1="180" x2="540" y2="180"></line>
    <line x1="280" y1="200" x2="500" y2="200"></line><line x1="280" y1="220" x2="540" y2="220"></line>
    <line x1="60" y1="280" x2="540" y2="280"></line><line x1="60" y1="300" x2="540" y2="300"></line>
    <line x1="60" y1="320" x2="540" y2="320"></line><line x1="60" y1="340" x2="540" y2="340"></line>
    <line x1="60" y1="360" x2="540" y2="360"></line><line x1="60" y1="380" x2="520" y2="380"></line>
    <line x1="60" y1="400" x2="540" y2="400"></line><line x1="60" y1="420" x2="540" y2="420"></line>
    <line x1="60" y1="440" x2="490" y2="440"></line><line x1="60" y1="460" x2="540" y2="460"></line>
    <line x1="60" y1="480" x2="540" y2="480"></line><line x1="60" y1="500" x2="540" y2="500"></line>
    <line x1="60" y1="520" x2="510" y2="520"></line><line x1="60" y1="540" x2="540" y2="540"></line>
    <line x1="60" y1="560" x2="540" y2="560"></line><line x1="60" y1="580" x2="540" y2="580"></line>
    <line x1="60" y1="600" x2="500" y2="600"></line><line x1="60" y1="620" x2="540" y2="620"></line>
    <line x1="60" y1="640" x2="540" y2="640"></line><line x1="60" y1="660" x2="540" y2="660"></line>
    <line x1="60" y1="680" x2="520" y2="680"></line><line x1="60" y1="700" x2="400" y2="700"></line>
  </g>
  <rect x="40" y="40" width="520" height="720" fill="none" stroke="#5A3A18" stroke-width="0.75"></rect>
</svg>