<svg xmlns="http://www.w3.org/2000/svg" viewBox="0 0 800 600" width="800" height="600">
  <defs>
    <linearGradient id="bg" x1="0" y1="0" x2="0" y2="1">
      <stop offset="0" stop-color="#FAF6EF"></stop><stop offset="1" stop-color="#E6DCC6"></stop>
    </linearGradient>
  </defs>
  <rect width="800" height="600" fill="url(#bg)"></rect>
  
  <g stroke="#5A3A18" stroke-width="1.25" fill="none" opacity="0.55">
    
    <polygon points="80,200 720,200 400,80"></polygon>
    <line x1="80" y1="200" x2="720" y2="200"></line>
    
    <rect x="80" y="200" width="640" height="36"></rect>
    <line x1="80" y1="218" x2="720" y2="218"></line>
    
    <g>
      <rect x="120" y="236" width="36" height="280"></rect>
      <rect x="220" y="236" width="36" height="280"></rect>
      <rect x="320" y="236" width="36" height="280"></rect>
      <rect x="420" y="236" width="36" height="280"></rect>
      <rect x="520" y="236" width="36" height="280"></rect>
      <rect x="620" y="236" width="36" height="280"></rect>
    </g>
    
    <g>
      <rect x="114" y="226" width="48" height="14"></rect>
      <rect x="214" y="226" width="48" height="14"></rect>
      <rect x="314" y="226" width="48" height="14"></rect>
      <rect x="414" y="226" width="48" height="14"></rect>
      <rect x="514" y="226" width="48" height="14"></rect>
      <rect x="614" y="226" width="48" height="14"></rect>
    </g>
    
    <line x1="80" y1="516" x2="720" y2="516"></line>
    <line x1="80" y1="528" x2="720" y2="528"></line>
    
    <g stroke-width="0.5">
      <line x1="128" y1="240" x2="128" y2="514"></line><line x1="138" y1="240" x2="138" y2="514"></line><line x1="148" y1="240" x2="148" y2="514"></line>
      <line x1="228" y1="240" x2="228" y2="514"></line><line x1="238" y1="240" x2="238" y2="514"></line><line x1="248" y1="240" x2="248" y2="514"></line>
      <line x1="328" y1="240" x2="328" y2="514"></line><line x1="338" y1="240" x2="338" y2="514"></line><line x1="348" y1="240" x2="348" y2="514"></line>
      <line x1="428" y1="240" x2="428" y2="514"></line><line x1="438" y1="240" x2="438" y2="514"></line><line x1="448" y1="240" x2="448" y2="514"></line>
      <line x1="528" y1="240" x2="528" y2="514"></line><line x1="538" y1="240" x2="538" y2="514"></line><line x1="548" y1="240" x2="548" y2="514"></line>
      <line x1="628" y1="240" x2="628" y2="514"></line><line x1="638" y1="240" x2="638" y2="514"></line><line x1="648" y1="240" x2="648" y2="514"></line>
    </g>
  </g>
</svg>